/* XPM */
static const char *team_logo_xpm[]={
"256 64 2 1",
" 	c None",
".	c #000000",
"                                                                                                                                                                                                                                                                ",
"                                                                                                                                                                                                                                                                ",
"                                                                                                                                                                                                                                                                ",
"                                                                                                                                                                                                                                                                ",
"                                                                                                                                                                                                                                                                ",
"                                                                                                                                                                                                                                                                ",
"                                                ....              ..                                                                                                                                                                                            ",
"       ..              ..                      .....       ..     ..                                                                                                                                                                                            ",
"       ..              ..                      ..          ..     ..                                                                                                                                                                                            ",
"      ....             ..                      ..          ..     ..                                                                                                                                                                                            ",
"      ....      .. .........          ....   .......      ......  .. ....      .....                                                                                                                                                                            ",
"     ..  ..     ............        ........ .......      ......  .......    ........                                                                                                                                                                           ",
"     ..  ..     ...    ..           ..    ..   ..          ..     ...  ...   ..    ...                                                                                                                                                                          ",
"     ..  ..     ..     ..          ..      ..  ..          ..     ..    ..  ..      ..                                                                                                                                                                          ",
"    ..    ..    ..     ..          ..      ..  ..          ..     ..    ..  ..........                                                                                                                                                                          ",
"    ........    ..     ..          ..      ..  ..          ..     ..    ..  ..........                                                                                                                                                                          ",
"   ..........   ..     ..          ..      ..  ..          ..     ..    ..  ..                                                                                                                                                                                  ",
"   ..      ..   ..     ..           ..    ..   ..          ..     ..    ..   ..      .                                                                                                                                                                          ",
"   ..      ..   ..     .....        ........   ..          .....  ..    ..   .........                                                                                                                                                                          ",
"  ..        ..  ..      ....          ....     ..           ....  ..    ..     ......                                                                                                                                                                           ",
"                                                                                                                                                                                                                                                                ",
"                                                                                                                                                                                                                                                                ",
"                                                                                                                                                                                                                                                                ",
"                                                                                                                                                                                                                                                                ",
"                                                                                                                                                                                                                                                                ",
"                                                                                                                                                                                                                                                                ",
"                                                                                                                                                                                                                                                                ",
"                                                                                                                                                                                                                                                                ",
"                                              ......                                             ..              ....       ....     ...........    ........           ......          ...         .........                                                    ",
"                                            ..........                                           ..              ....       ....     ...........    ..........       ..........        ...         ...........                                                  ",
"                                           ...      ...                                          ..              ....       ....     ..             ..      ..       ..      ..       .....        ..      ....                                                 ",
"                                          ...         .                                          ..              .. ..     .. ..     ..             ..       ..     ..                .. ..        ..        ...                                                ",
"                                          ..                ..  ...     .....       ......     ........          .. ..     .. ..     ..             ..       ..     ..                .. ..        ..         ..                                                ",
"                                         ..                 .......   ........     .........   ........          .. ..     .. ..     ..             ..       ..     ..               ..   ..       ..          ..                                               ",
"                                         ..                 ....     ...    ...    .      ..     ..              ..  ..   ..  ..     ..             ..       ..     ...              ..   ..       ..          ..                                               ",
"                                         ..                 ...      ..       ..           ..    ..              ..  ..   ..  ..     ..........     ..      ..       .....          ...   ...      ..          ..                                               ",
"                                         ..       ......    ..      ..        ..           ..    ..              ..  ..   ..  ..     ..........     ..........        ........      ..     ..      ..          ..                                               ",
"                                         ..       ......    ..      ............     ........    ..              ..   .. ..   ..     ..             .........             .....     ..     ..      ..          ..                                               ",
"                                         ..           ..    ..      ............   ..........    ..              ..   .. ..   ..     ..             ..     ...               ...   ...     ...     ..          ..                                               ",
"                                         ...          ..    ..      ..            ...      ..    ..              ..   .....   ..     ..             ..      ..                ..   ...........     ..          ..                                               ",
"                                          ..          ..    ..      ..            ..       ..    ..              ..    ...    ..     ..             ..       ..               ..   ...........     ..         ..                                                ",
"                                          ...         ..    ..       ..           ..      ...    ..              ..    ...    ..     ..             ..       ..               ..  ..         ..    ..        ...                                                ",
"                                           ....      ...    ..       ...       .  ...    ....    ..              ..           ..     ..             ..        ..    ..      ...   ..         ..    ..      ....                                                 ",
"                                            ...........     ..        ..........   ..........     .....          ..           ..     ...........    ..        ..    ...........   ..         ..    ...........                                                  ",
"                                              .......       ..          .......     .....  ..     .....          ..           ..     ...........    ..         ..     .......    ..           ..   .........                                                    ",
"                                                                                                                                                                                                                                                                ",
"                                                                                                                                                                                                                 ......                                         ",
"                                                                                                                                                                                                                 ........                                       ",
"                                                                                                                                                                                                                 ..    ..                                       ",
"                                                                                                                                                                                                                 ..    ..     ....      .....      .....        ",
"                                                                                                                                                                                                                 ..    ..    ......    .......   ........       ",
"                                                                                                                                                                                                                 .......     .   ...   ..    .   ..    ...      ",
"                                                                                                                                                                                                                 .......          ..   ....     ..      ..      ",
"                                                                                                                                                                                                                 ..    ..     ......    .....   ..........      ",
"                                                                                                                                                                                                                 ..     ..  ........      ....  ..........      ",
"                                                                                                                                                                                                                 ..     ..  ..    ..        ..  ..              ",
"                                                                                                                                                                                                                 ..    ...  ..   ...   .    ..   ..      .      ",
"                                                                                                                                                                                                                 ........   ........   .......   .........      ",
"                                                                                                                                                                                                                 .......     .... ..    .....      ......       ",
"                                                                                                                                                                                                                                                                ",
"                                                                                                                                                                                                                                                                ",
"                                                                                                                                                                                                                                                                ",
"                                                                                                                                                                                                                                                                ",
"                                                                                                                                                                                                                                                                "};
